<?xml version="1.0" standalone="no"?>
<!DOCTYPE svg PUBLIC "-//W3C//DTD SVG 20010904//EN"
 "http://www.w3.org/TR/2001/REC-SVG-20010904/DTD/svg10.dtd">
<svg version="1.0" xmlns="http://www.w3.org/2000/svg"
 width="84.000000pt" height="84.000000pt" viewBox="0 0 84.000000 84.000000"
 preserveAspectRatio="xMidYMid meet">
<metadata>
Created by potrace 1.14, written by Peter Selinger 2001-2017
</metadata>
<g transform="translate(0.000000,84.000000) scale(0.100000,-0.100000)"
fill="#000000" stroke="none">
<path d="M151 713 c-26 -52 -44 -146 -36 -191 6 -41 -22 -170 -45 -196 -10
-13 -10 -20 -2 -28 7 -7 12 -22 12 -34 0 -44 115 -109 257 -144 l79 -20 78 20
c142 36 256 100 256 144 0 12 5 27 12 34 9 9 8 16 -4 29 -21 25 -51 157 -43
192 12 56 -35 231 -63 231 -10 0 -50 -28 -103 -71 -40 -34 -48 -36 -89 -30
-25 4 -65 3 -90 0 -39 -6 -49 -4 -78 20 -73 58 -105 81 -113 81 -5 0 -17 -17
-28 -37z m73 -62 c48 -78 47 -87 -8 -81 -12 1 -16 -3 -11 -10 4 -7 4 -15 -1
-19 -5 -3 -14 -15 -20 -26 -20 -36 -29 -21 -32 52 -2 47 2 84 12 107 8 20 17
36 19 36 2 0 21 -27 41 -59z m451 -5 c9 -46 2 -151 -10 -151 -5 0 -14 10 -20
23 -5 12 -13 22 -17 22 -5 0 -8 7 -8 15 0 8 -6 12 -13 9 -7 -2 -20 1 -30 8
-15 12 -13 18 25 76 38 58 43 62 55 46 7 -10 15 -31 18 -48z m-393 -271 c0 -5
-5 -11 -11 -13 -6 -2 -11 4 -11 13 0 9 5 15 11 13 6 -2 11 -8 11 -13z m298 0
c0 -8 -4 -15 -10 -15 -5 0 -10 7 -10 15 0 8 5 15 10 15 6 0 10 -7 10 -15z
m-133 -42 c33 -25 45 -28 112 -28 58 1 86 6 118 23 49 26 62 17 58 -43 -2 -35
-8 -43 -51 -72 -67 -45 -194 -86 -269 -86 -117 -1 -330 95 -318 143 3 11 0 26
-6 34 -9 10 -8 16 3 26 12 9 26 8 71 -9 89 -33 186 -24 224 22 17 22 16 22 58
-10z"/>
</g>
</svg>
